<svg xmlns="http://www.w3.org/2000/svg" width="736" height="920" viewBox="0 0 736 920"><rect width="736" height="920" fill="#19171A"/><rect width="641.1" height="360.1" x="46.8" y="279.7" fill="#222"/><g fill="#F9F9F9"><path d="M103.83 346.28 L109.03 355.28 L98.63 355.28 Z"/><path d="M121.08 354.58 L117.28 364.26 L110.80 356.13 Z"/><path d="M125.34 373.25 L115.40 376.32 L117.72 366.18 Z"/><path d="M113.40 388.22 L104.81 382.36 L114.18 377.85 Z"/><path d="M94.26 388.22 L93.48 377.85 L102.85 382.36 Z"/><path d="M82.32 373.25 L89.94 366.18 L92.26 376.32 Z"/><path d="M86.58 354.58 L96.86 356.13 L90.38 364.26 Z"/></g><g><circle cx="312.33" cy="367.33" r="19.75" fill="none" stroke="#F9F9F9" stroke-width="1.66"/><circle cx="312.33" cy="367.33" r="11" fill="#F9F9F9"/><circle cx="329.04" cy="377.37" r="2.9" fill="#F9F9F9"/></g><g fill="none" stroke="#F9F9F9" stroke-width="1.8"><circle cx="520.5" cy="367.5" r="4.6"/><path d="M520.50 362.00 L520.50 350.90"/><circle cx="520.5" cy="349.1" r="1.8"/><path d="M523.25 362.74 L528.80 353.12"/><circle cx="529.7" cy="351.57" r="1.8"/><path d="M525.26 364.75 L534.88 359.20"/><circle cx="536.43" cy="358.3" r="1.8"/><path d="M526.00 367.50 L537.10 367.50"/><circle cx="538.9" cy="367.5" r="1.8"/><path d="M525.26 370.25 L534.88 375.80"/><circle cx="536.43" cy="376.7" r="1.8"/><path d="M523.25 372.26 L528.80 381.88"/><circle cx="529.7" cy="383.43" r="1.8"/><path d="M520.50 373.00 L520.50 384.10"/><circle cx="520.5" cy="385.9" r="1.8"/><path d="M517.75 372.26 L512.20 381.88"/><circle cx="511.3" cy="383.43" r="1.8"/><path d="M515.74 370.25 L506.12 375.80"/><circle cx="504.57" cy="376.7" r="1.8"/><path d="M515.00 367.50 L503.90 367.50"/><circle cx="502.1" cy="367.5" r="1.8"/><path d="M515.74 364.75 L506.12 359.20"/><circle cx="504.57" cy="358.3" r="1.8"/><path d="M517.75 362.74 L512.20 353.12"/><circle cx="511.3" cy="351.57" r="1.8"/></g><circle cx="672.9" cy="294.7" r="1.9" fill="#F0F0F0"/><path fill="none" stroke="#C8C8C8" stroke-width="1.2" d="M675.6 623.2 L678.2 626.2 M675.6 623.2 L673 626.2 M675.6 623.4 L675.6 629.4"/><g fill="#F9F9F9" font-family="Inter Tight, sans-serif" font-size="16.8" letter-spacing="-.2"><text x="83" y="417">Gender Identity,</text><text x="83" y="436">Expression &amp; Sexuality</text><text x="83" y="455">as a Source of <tspan font-style="italic">Joy</tspan></text><text x="291" y="417">Space is a</text><text x="291" y="436"><tspan font-style="italic">Collective</tspan></text><text x="291" y="455">Commons</text><text x="499.5" y="417">Artificial Intelligence</text><text x="499.5" y="436"><tspan font-style="italic">Enhances</tspan> Life</text><text x="499.5" y="455">(Including its Own)</text></g><g fill="#E6E6E6" font-family="Inter Tight, sans-serif" font-size="7.3"><text x="83" y="486">All gender identities and expressions (&amp; none), and all sexual</text><text x="83" y="493.1">orientations (&amp; none) should be experienced as a joy in the</text><text x="83" y="500.2">absence of exclusion, exploitation or violence.</text><text x="83" y="512.9">The LGBTQIA+ experience is absent and neglected in the</text><text x="83" y="520">SDGs. This caused a tension in developing the AAGs – as</text><text x="83" y="527.1">we cleaved closely to the SDGs but know and commit to the</text><text x="83" y="534.2">LGBTQIA+ experience and rights being fully accounted for</text><text x="83" y="541.3">and supported. Therefore, we propose this additional AAG</text><text x="83" y="548.4">on gender identity, expression and sexual orientation.</text><text x="291" y="486">The resources and wonder of space beyond the earth&apos;s</text><text x="291" y="493.1">atmosphere should be held as collective right and property</text><text x="291" y="500.2">of all humanity. The benefits accruing to those institutions</text><text x="291" y="507.3">and individuals able to access space should be distributed.</text><text x="291" y="520">At the time of the SDG adoption, billionaires did not yet</text><text x="291" y="527.1">dominate space exploitation. The Outer Space Treaty of 1967</text><text x="291" y="534.2">places the Moon, the planets, and other celestial bodies under</text><text x="291" y="541.3">international law, however in reality, the benefits of space</text><text x="291" y="548.4">exploration and exploitation are held inequitably. Therefore,</text><text x="291" y="555.5">we propose this additional AAG on equitable benefit and</text><text x="291" y="562.6">protection of space.</text><text x="499.5" y="486">AI should always be programmed for the benefit of life.</text><text x="499.5" y="493.1">AI algorithms should be transparent and independently</text><text x="499.5" y="500.2">testable – especially in high-consequence scenarios such</text><text x="499.5" y="507.3">as defence, healthcare, policing and justice.</text><text x="499.5" y="520">Artificial Intelligence algorithms already impact daily lives</text><text x="499.5" y="527.1">(and in the case of weapons systems – end lives). The</text><text x="499.5" y="534.2">moral compass of AI is, so far, dependent upon the human</text><text x="499.5" y="541.3">programming them and the data models they curate to</text><text x="499.5" y="548.4">train them, with growing urgency for oversight.</text><text x="499.5" y="561.1">The possibilities for AI extend much further, perhaps</text><text x="499.5" y="568.2">even to sentience, at which point AI welfare should also</text><text x="499.5" y="575.3">be considered.</text></g><g fill="#F9F9F9" font-family="Inter Tight, sans-serif" font-size="9.4" font-weight="500"><text x="57" y="296" letter-spacing=".2">FUTERRA</text><text x="57" y="631" letter-spacing=".6">97</text></g></svg>