<svg xmlns="http://www.w3.org/2000/svg" width="901" height="453" viewBox="0 0 901 453"><rect width="901" height="453" fill="#000"/><rect width="149.2" height="202" x="43.9" y="125.5" fill="#FFF" fill-opacity=".18" rx="4"/><text x="62" y="155" fill="#FFF" font-family="Instrument Serif, serif" font-size="12.5">Minimum investment</text><text x="62" y="170.5" fill="#9D9EA1" font-family="Rethink Sans, sans-serif" font-size="7.2">Rs. 1 crore</text><rect width="67.6" height="67.8" x="84.7" y="214.6" fill="none" stroke="#FFF" stroke-width="1.35" rx="13"/><ellipse cx="118.5" cy="230.6" fill="none" stroke="#FFF" stroke-width="1.36" rx="21.35" ry="5.8"/><path fill="none" stroke="#FFF" stroke-width="1.36" d="M97.15 230.60 V266.21 M139.85 230.60 V266.21"/><path fill="none" stroke="#FFF" stroke-width="1.36" d="M97.15 242.47 A21.35 5.8 0 0 0 139.85 242.47"/><path fill="none" stroke="#FFF" stroke-width="1.36" d="M97.15 254.34 A21.35 5.8 0 0 0 139.85 254.34"/><path fill="none" stroke="#F6A11A" stroke-width="1.36" d="M97.15 266.21 A21.35 5.8 0 0 0 139.85 266.21"/><rect width="149.2" height="202" x="210" y="125.5" fill="#FFF" fill-opacity=".18" rx="4"/><text x="228.1" y="155" fill="#FFF" font-family="Instrument Serif, serif" font-size="12.5">Suitable time frame</text><text x="228.1" y="170.5" fill="#9D9EA1" font-family="Rethink Sans, sans-serif" font-size="7.2">3 to 5 years</text><path stroke="#FFF" stroke-width="1.36" d="M239.60000000000002 248.5 H329.6"/><path stroke="#FFF" stroke-width="1.36" d="M239.60 243.5 V253.5"/><path stroke="#FFF" stroke-width="1.36" d="M257.60 243.5 V253.5"/><path stroke="#FFF" stroke-width="1.36" d="M275.60 243.5 V253.5"/><path stroke="#FFF" stroke-width="1.36" d="M293.60 243.5 V253.5"/><path stroke="#FFF" stroke-width="1.36" d="M311.60 243.5 V253.5"/><path stroke="#FFF" stroke-width="1.36" d="M329.60 243.5 V253.5"/><path stroke="#F6A11A" stroke-linecap="round" stroke-width="4" d="M293.60 248.5 H329.60"/><rect width="149.2" height="202" x="376.1" y="125.5" fill="#FFF" fill-opacity=".18" rx="4"/><text x="394.2" y="155" fill="#FFF" font-family="Instrument Serif, serif" font-size="12.5">Investment in</text><text x="394.2" y="170.5" fill="#9D9EA1" font-family="Rethink Sans, sans-serif" font-size="7.2">Listed and pre-IPO/unlisted</text><text x="394.2" y="180.5" fill="#9D9EA1" font-family="Rethink Sans, sans-serif" font-size="7.2">opportunities</text><rect width="24.5" height="24.5" x="398.45" y="236.25" fill="#F6A11A" rx="6"/><rect width="16.6" height="16.6" x="460.4" y="219.2" fill="none" stroke="#FFF" stroke-width="1.1" rx="3.2"/><rect width="16.6" height="16.6" x="482.4" y="240.2" fill="none" stroke="#FFF" stroke-width="1.1" rx="3.2"/><rect width="16.6" height="16.6" x="444.4" y="256.2" fill="none" stroke="#FFF" stroke-dasharray="2.2 2" stroke-width="1.1" rx="3.2"/><path fill="none" stroke="#FFF" stroke-width="1.1" d="M423.20 241.90 L453.01 231.12"/><path fill="#FFF" d="M456.40 229.90 L453.76 233.19 L452.27 229.05 Z"/><path fill="none" stroke="#FFF" stroke-width="1.1" d="M423.20 248.50 L474.30 248.50"/><path fill="#FFF" d="M477.90 248.50 L474.30 250.70 L474.30 246.30 Z"/><path fill="none" stroke="#FFF" stroke-width="1.1" d="M423.20 254.90 L436.10 259.33"/><path fill="#FFF" d="M439.50 260.50 L435.38 261.41 L436.81 257.25 Z"/><rect width="149.2" height="202" x="542.2" y="125.5" fill="#FFF" fill-opacity=".18" rx="4"/><text x="560.3" y="155" fill="#FFF" font-family="Instrument Serif, serif" font-size="12.5">Benchmark</text><text x="560.3" y="170.5" fill="#9D9EA1" font-family="Rethink Sans, sans-serif" font-size="7.2">S&amp;P BSE 500 TRI</text><g fill="none" stroke="#FFF" stroke-width="1"><path d="M601.3 248.5 C639.3 248.5 621.3 209.25 665.3 209.25 L671.3 209.25"/><path d="M601.3 248.5 C639.3 248.5 621.3 223.62 665.3 223.62 L671.3 223.62"/><path d="M601.3 248.5 C639.3 248.5 621.3 235.52 665.3 235.52 L671.3 235.52"/><path d="M601.3 248.5 C639.3 248.5 621.3 261.52 665.3 261.52 L671.3 261.52"/><path d="M601.3 248.5 C639.3 248.5 621.3 273.40 665.3 273.40 L671.3 273.40"/><path d="M601.3 248.5 C639.3 248.5 621.3 287.71 665.3 287.71 L671.3 287.71"/></g><path fill="none" stroke="#F6A11A" stroke-width="1.3" d="M582.9 248.5 L671.3 248.5"/><path fill="#F6A11A" d="M582.3 248.5 L586.3 245.9 L586.3 251.1 Z"/><rect width="149.2" height="202" x="708.3" y="125.5" fill="#FFF" fill-opacity=".18" rx="4"/><text x="726.4" y="155" fill="#FFF" font-family="Instrument Serif, serif" font-size="12.5">Exit load</text><text x="726.4" y="170.5" fill="#9D9EA1" font-family="Rethink Sans, sans-serif" font-size="7.2">No exit load, subject to</text><text x="726.4" y="180.5" fill="#9D9EA1" font-family="Rethink Sans, sans-serif" font-size="7.2">approved fund documents</text><path fill="none" stroke="#FFF" stroke-width="1.36" d="M802.9 239.5 V231.5 A11 11 0 0 0 791.9 220.5 H757.9 A11 11 0 0 0 746.9 231.5 V265.5 A11 11 0 0 0 757.9 276.5 H791.9 A11 11 0 0 0 802.9 265.5 V257.5"/><circle cx="762.9" cy="248.5" r="2.2" fill="#FFF"/><g fill="#F6A11A" stroke="#F6A11A"><path fill="none" stroke="#F6A11A" stroke-width="1.6" d="M766.90 248.50 L819.90 248.50"/><path fill="#F6A11A" d="M824.90 248.50 L819.90 251.70 L819.90 245.30 Z"/></g></svg>