<svg xmlns="http://www.w3.org/2000/svg" width="736" height="552" viewBox="0 0 736 552"><rect width="736" height="552" fill="#F2EFE8"/><defs><clipPath id="c0"><circle cx="154.34" cy="195.21" r="34.62"/></clipPath><clipPath id="c1"><circle cx="243.88" cy="195.21" r="52.36"/></clipPath><clipPath id="c2"><circle cx="368.43" cy="195.21" r="70.1"/></clipPath><clipPath id="c3"><circle cx="528.45" cy="195.21" r="87.84"/></clipPath></defs><circle cx="154.34" cy="195.21" r="34.62" fill="#DF2914"/><circle cx="243.88" cy="195.21" r="52.36" fill="#DF2914"/><circle cx="368.43" cy="195.21" r="70.1" fill="#DF2914"/><circle cx="528.45" cy="195.21" r="87.84" fill="#DF2914"/><g clip-path="url(#c3)"><path fill="#000" fill-opacity=".85" d="M520.5 113.4 L526 113.8 L545 117.9 L560 120.3 L569 120.8 L577 120.7 L583 121.3 L584 122.7 L578 123.9 L566 123.5 L552 122.3 L535 118.8 L522 115.3 Z"/></g><g fill="none" stroke="#FFF" stroke-linecap="butt" stroke-linejoin="miter" stroke-width=".95" clip-path="url(#c0)"><line x1="118.72" x2="153.66" y1="195.12" y2="195.12"/><polyline points="137.16 178.62 153.66 195.12 137.16 211.62"/></g><g fill="none" stroke="#FFF" stroke-linecap="butt" stroke-linejoin="miter" stroke-width=".95" clip-path="url(#c1)"><line x1="190.52" x2="243.2" y1="195.12" y2="195.12"/><polyline points="226.7 178.62 243.2 195.12 226.7 211.62"/></g><g fill="none" stroke="#FFF" stroke-linecap="butt" stroke-linejoin="miter" stroke-width=".95" clip-path="url(#c2)"><line x1="297.33" x2="367.75" y1="195.12" y2="195.12"/><polyline points="351.25 178.62 367.75 195.12 351.25 211.62"/></g><g fill="none" stroke="#FFF" stroke-linecap="butt" stroke-linejoin="miter" stroke-width=".95" clip-path="url(#c3)"><line x1="439.61" x2="527.77" y1="195.12" y2="195.12"/><polyline points="511.27 178.62 527.77 195.12 511.27 211.62"/></g><g fill="#161618"><ellipse cx="521" cy="80.2" rx="2.3" ry="2.9"/><path d="M524.2 79.6 L533.2 75.9 L534.1 77.4 L525.0 81.0 Z"/><path d="M518.4 83.7 L527.4 83.7 L527.5 79.4 L529.0 79.4 L529.4 85.5 L524.3 86.0 L524.5 97 L524.8 108 L525.2 113.9 L520.6 113.9 L520.3 100 L519.3 96.5 L517.6 91.5 L517.3 86.2 Z"/></g><g fill="#161618" font-family="Inter Tight"><text x="122.84" y="341.3" font-size="18.4" font-weight="800" letter-spacing="-.3">01</text><text x="122.84" y="358.2" font-size="10.4" font-weight="600" letter-spacing="-.5">Lorem ipsum</text><text x="122.84" y="373.2" font-size="10.4" font-weight="600" letter-spacing="-.5">dolor</text><text x="122.34" y="387.6" fill-opacity=".9" font-size="4.75" font-weight="400" letter-spacing="-.17">Lorem ipsum dolor sit amet,</text><text x="122.34" y="393.8" fill-opacity=".9" font-size="4.75" font-weight="400" letter-spacing="-.17">consectetuer adipiscing elit, sed</text><text x="122.34" y="400" fill-opacity=".9" font-size="4.75" font-weight="400" letter-spacing="-.17">diam nonummy nibh euismod</text><text x="122.34" y="406.2" fill-opacity=".9" font-size="4.75" font-weight="400" letter-spacing="-.17">tincidunt ut laoreet dolore</text><text x="122.34" y="412.4" fill-opacity=".9" font-size="4.75" font-weight="400" letter-spacing="-.17">magna aliquam erat volutpat. Ut</text><text x="122.34" y="418.6" fill-opacity=".9" font-size="4.75" font-weight="400" letter-spacing="-.17">wisi enim ad minim veniam, quis</text><text x="122.34" y="436.4" fill-opacity=".9" font-size="4.75" font-weight="400" letter-spacing="-.17">Lorem ipsum dolor sit amet,</text><text x="122.34" y="442.6" fill-opacity=".9" font-size="4.75" font-weight="400" letter-spacing="-.17">consectetuer adipiscing elit, sed</text><text x="122.34" y="448.8" fill-opacity=".9" font-size="4.75" font-weight="400" letter-spacing="-.17">diam nonummy nibh euismod</text><text x="122.34" y="455" fill-opacity=".9" font-size="4.75" font-weight="400" letter-spacing="-.17">tincidunt ut laoreet dolore</text><text x="122.34" y="461.2" fill-opacity=".9" font-size="4.75" font-weight="400" letter-spacing="-.17">magna aliquam erat volutpat. Ut</text><text x="122.34" y="467.4" fill-opacity=".9" font-size="4.75" font-weight="400" letter-spacing="-.17">wisi enim ad minim veniam, quis</text><text x="212.38" y="341.3" font-size="18.4" font-weight="800" letter-spacing="-.3">02</text><text x="212.38" y="358.2" font-size="10.4" font-weight="600" letter-spacing="-.5">Lorem ipsum</text><text x="212.38" y="373.2" font-size="10.4" font-weight="600" letter-spacing="-.5">dolor</text><text x="211.88" y="387.6" fill-opacity=".9" font-size="4.75" font-weight="400" letter-spacing="-.17">Lorem ipsum dolor sit amet,</text><text x="211.88" y="393.8" fill-opacity=".9" font-size="4.75" font-weight="400" letter-spacing="-.17">consectetuer adipiscing elit, sed</text><text x="211.88" y="400" fill-opacity=".9" font-size="4.75" font-weight="400" letter-spacing="-.17">diam nonummy nibh euismod</text><text x="211.88" y="406.2" fill-opacity=".9" font-size="4.75" font-weight="400" letter-spacing="-.17">tincidunt ut laoreet dolore</text><text x="211.88" y="412.4" fill-opacity=".9" font-size="4.75" font-weight="400" letter-spacing="-.17">magna aliquam erat volutpat. Ut</text><text x="211.88" y="418.6" fill-opacity=".9" font-size="4.75" font-weight="400" letter-spacing="-.17">wisi enim ad minim veniam, quis</text><text x="211.88" y="436.4" fill-opacity=".9" font-size="4.75" font-weight="400" letter-spacing="-.17">Lorem ipsum dolor sit amet,</text><text x="211.88" y="442.6" fill-opacity=".9" font-size="4.75" font-weight="400" letter-spacing="-.17">consectetuer adipiscing elit, sed</text><text x="211.88" y="448.8" fill-opacity=".9" font-size="4.75" font-weight="400" letter-spacing="-.17">diam nonummy nibh euismod</text><text x="211.88" y="455" fill-opacity=".9" font-size="4.75" font-weight="400" letter-spacing="-.17">tincidunt ut laoreet dolore</text><text x="211.88" y="461.2" fill-opacity=".9" font-size="4.75" font-weight="400" letter-spacing="-.17">magna aliquam erat volutpat. Ut</text><text x="211.88" y="467.4" fill-opacity=".9" font-size="4.75" font-weight="400" letter-spacing="-.17">wisi enim ad minim veniam, quis</text><text x="336.93" y="341.3" font-size="18.4" font-weight="800" letter-spacing="-.3">03</text><text x="336.93" y="358.2" font-size="10.4" font-weight="600" letter-spacing="-.5">Lorem ipsum</text><text x="336.93" y="373.2" font-size="10.4" font-weight="600" letter-spacing="-.5">dolor</text><text x="336.43" y="387.6" fill-opacity=".9" font-size="4.75" font-weight="400" letter-spacing="-.17">Lorem ipsum dolor sit amet,</text><text x="336.43" y="393.8" fill-opacity=".9" font-size="4.75" font-weight="400" letter-spacing="-.17">consectetuer adipiscing elit, sed</text><text x="336.43" y="400" fill-opacity=".9" font-size="4.75" font-weight="400" letter-spacing="-.17">diam nonummy nibh euismod</text><text x="336.43" y="406.2" fill-opacity=".9" font-size="4.75" font-weight="400" letter-spacing="-.17">tincidunt ut laoreet dolore</text><text x="336.43" y="412.4" fill-opacity=".9" font-size="4.75" font-weight="400" letter-spacing="-.17">magna aliquam erat volutpat. Ut</text><text x="336.43" y="418.6" fill-opacity=".9" font-size="4.75" font-weight="400" letter-spacing="-.17">wisi enim ad minim veniam, quis</text><text x="336.43" y="436.4" fill-opacity=".9" font-size="4.75" font-weight="400" letter-spacing="-.17">Lorem ipsum dolor sit amet,</text><text x="336.43" y="442.6" fill-opacity=".9" font-size="4.75" font-weight="400" letter-spacing="-.17">consectetuer adipiscing elit, sed</text><text x="336.43" y="448.8" fill-opacity=".9" font-size="4.75" font-weight="400" letter-spacing="-.17">diam nonummy nibh euismod</text><text x="336.43" y="455" fill-opacity=".9" font-size="4.75" font-weight="400" letter-spacing="-.17">tincidunt ut laoreet dolore</text><text x="336.43" y="461.2" fill-opacity=".9" font-size="4.75" font-weight="400" letter-spacing="-.17">magna aliquam erat volutpat. Ut</text><text x="336.43" y="467.4" fill-opacity=".9" font-size="4.75" font-weight="400" letter-spacing="-.17">wisi enim ad minim veniam, quis</text><text x="496.95" y="341.3" font-size="18.4" font-weight="800" letter-spacing="-.3">04</text><text x="496.95" y="358.2" font-size="10.4" font-weight="600" letter-spacing="-.5">Lorem ipsum</text><text x="496.95" y="373.2" font-size="10.4" font-weight="600" letter-spacing="-.5">dolor</text><text x="496.45" y="387.6" fill-opacity=".9" font-size="4.75" font-weight="400" letter-spacing="-.17">Lorem ipsum dolor sit amet,</text><text x="496.45" y="393.8" fill-opacity=".9" font-size="4.75" font-weight="400" letter-spacing="-.17">consectetuer adipiscing elit, sed</text><text x="496.45" y="400" fill-opacity=".9" font-size="4.75" font-weight="400" letter-spacing="-.17">diam nonummy nibh euismod</text><text x="496.45" y="406.2" fill-opacity=".9" font-size="4.75" font-weight="400" letter-spacing="-.17">tincidunt ut laoreet dolore</text><text x="496.45" y="412.4" fill-opacity=".9" font-size="4.75" font-weight="400" letter-spacing="-.17">magna aliquam erat volutpat. Ut</text><text x="496.45" y="418.6" fill-opacity=".9" font-size="4.75" font-weight="400" letter-spacing="-.17">wisi enim ad minim veniam, quis</text><text x="496.45" y="436.4" fill-opacity=".9" font-size="4.75" font-weight="400" letter-spacing="-.17">Lorem ipsum dolor sit amet,</text><text x="496.45" y="442.6" fill-opacity=".9" font-size="4.75" font-weight="400" letter-spacing="-.17">consectetuer adipiscing elit, sed</text><text x="496.45" y="448.8" fill-opacity=".9" font-size="4.75" font-weight="400" letter-spacing="-.17">diam nonummy nibh euismod</text><text x="496.45" y="455" fill-opacity=".9" font-size="4.75" font-weight="400" letter-spacing="-.17">tincidunt ut laoreet dolore</text><text x="496.45" y="461.2" fill-opacity=".9" font-size="4.75" font-weight="400" letter-spacing="-.17">magna aliquam erat volutpat. Ut</text><text x="496.45" y="467.4" fill-opacity=".9" font-size="4.75" font-weight="400" letter-spacing="-.17">wisi enim ad minim veniam, quis</text></g></svg>